<svg xmlns="http://www.w3.org/2000/svg" width="113" height="112" fill="none" viewBox="0 0 113 112"><rect width="100" height="100" x="6.333" y="6" fill="#1D2939" stroke="#1D2939" stroke-width="4" rx="50"/><mask id="mask0_68_5626" style="mask-type:alpha" width="97" height="96" x="8" y="8" maskUnits="userSpaceOnUse"><path fill="#D9D9D9" d="M8.33337 56C8.33337 29.4903 29.8237 8 56.3334 8C82.843 8 104.333 29.4903 104.333 56C104.333 82.5097 82.843 104 56.3334 104C29.8237 104 8.33337 82.5097 8.33337 56Z"/></mask><g mask="url(#mask0_68_5626)"><path fill="#000" fill-opacity=".16" d="M63.6455 39.6091L86.8091 40.0546L68.5455 52.0818L58.7455 54.7546L58.3 51.1909L63.6455 39.6091Z"/><path fill="#fff" fill-opacity=".08" d="M63.2 38.2727L55.6273 19.5636L83.6909 38.2727H63.2Z"/><path stroke="#66FBD1" stroke-linecap="round" stroke-linejoin="round" stroke-width="3" d="M63.6724 39.2816L54.6301 17.7819L87.477 39.2816L54.6301 60.7813L63.6724 39.2816Z"/><path fill="#314155" d="M43.1545 69.4545L27.5636 31.5909L85.4727 69.4545H43.1545Z"/><path fill="#fff" fill-opacity=".08" d="M43.1545 69.4545L27.5636 31.5909L85.4727 69.4545H43.1545Z"/><path fill="#000" fill-opacity=".16" d="M24.4455 113.109L43.6 69.4545L88.5909 70.3454L24.4455 113.109Z"/><line x1="43.894" x2="86.872" y1="70.627" y2="70.627" stroke="#66FBD1" stroke-linecap="round" stroke-linejoin="round" stroke-width="3"/><line x1="64.825" x2="86.529" y1="39.668" y2="39.668" stroke="#66FBD1" stroke-linecap="round" stroke-linejoin="round" stroke-width="3"/><path stroke="#66FBD1" stroke-linecap="round" stroke-linejoin="round" stroke-width="3" d="M43.2205 70.2436L25.7818 28.7798L89.1295 70.2436L25.7818 111.707L43.2205 70.2436Z"/></g></svg>